<?xml version="1.0" standalone="no"?>
<!DOCTYPE svg PUBLIC "-//W3C//DTD SVG 20010904//EN"
 "http://www.w3.org/TR/2001/REC-SVG-20010904/DTD/svg10.dtd">
<svg version="1.0" xmlns="http://www.w3.org/2000/svg"
 width="226.000000pt" height="70.000000pt" viewBox="0 0 226.000000 70.000000"
 preserveAspectRatio="xMidYMid meet">

<g transform="translate(0.000000,70.000000) scale(0.100000,-0.100000)"
fill="#000000" stroke="none">
<path d="M383 674 c-16 -25 -23 -29 -59 -26 -31 2 -46 -2 -67 -22 -32 -29 -35
-75 -13 -150 l14 -46 -45 -60 c-69 -92 -133 -127 -183 -100 -29 16 -36 6 -17
-23 40 -62 131 -32 204 67 25 34 48 62 53 64 10 4 30 -53 30 -84 0 -31 18 -30
80 1 27 14 52 25 54 25 3 0 2 -22 -1 -48 -4 -37 -2 -52 12 -65 27 -28 45 -22
35 12 -4 15 -3 52 2 82 8 45 18 63 62 109 69 71 93 108 101 152 6 29 3 39 -16
57 -18 16 -20 24 -11 33 7 7 12 17 12 22 0 6 -12 -1 -28 -17 -15 -15 -52 -40
-82 -55 -55 -28 -101 -81 -115 -132 -5 -16 3 -9 23 21 30 47 70 81 108 93 20
6 17 -2 -22 -86 -25 -51 -50 -104 -57 -118 -13 -25 -102 -90 -123 -90 -7 0
-19 30 -27 67 l-15 67 40 81 c22 44 42 82 45 85 3 3 13 -6 24 -19 23 -28 24
-22 5 24 -12 27 -12 42 -4 65 14 42 3 49 -19 14z m-33 -70 c0 -3 -14 -33 -32
-66 -26 -49 -33 -56 -41 -43 -13 24 -1 87 20 102 17 13 53 18 53 7z m250 -44
c0 -38 -20 -77 -54 -109 -33 -31 -33 -26 5 64 34 80 49 94 49 45z"/>
<path d="M1505 675 c-24 -9 -56 -12 -82 -8 -94 13 -152 -54 -112 -129 8 -15 6
-31 -11 -71 -31 -70 -37 -154 -16 -196 36 -69 117 -77 196 -20 l42 31 -38 -73
c-37 -68 -131 -179 -152 -179 -5 0 8 17 29 38 61 62 64 123 5 130 -19 3 -35
-5 -59 -30 -31 -31 -34 -32 -50 -16 -30 32 -67 5 -67 -48 0 -24 9 -40 35 -63
73 -64 165 -27 255 101 47 67 103 171 129 241 19 49 -21 33 -59 -24 -71 -106
-151 -143 -206 -96 -26 23 -29 30 -27 85 0 33 9 78 20 103 l19 44 27 -40 c15
-22 27 -46 27 -53 0 -34 164 51 218 112 55 63 61 140 13 165 -27 15 -88 13
-136 -4z m106 -25 c27 -15 25 -64 -5 -114 -24 -40 -80 -87 -143 -120 l-32 -16
-20 42 c-11 24 -26 50 -33 59 -9 14 -7 23 17 50 43 53 63 63 82 47 9 -7 24
-26 35 -43 18 -30 18 -30 18 -5 0 14 -8 39 -19 55 l-18 30 31 12 c40 15 63 16
87 3z m-230 -58 c-34 -37 -56 -38 -44 -3 11 30 25 41 53 41 l27 0 -36 -38z
m-5 -436 c3 -8 -1 -27 -10 -44 -15 -29 -80 -92 -95 -92 -4 0 -20 11 -35 25
-35 32 -34 88 1 93 14 2 23 -3 27 -16 6 -18 10 -16 40 14 36 36 63 43 72 20z"/>
<path d="M1970 563 c-8 -21 -20 -34 -38 -38 -22 -6 -24 -8 -10 -14 16 -5 11
-17 -33 -91 -55 -92 -85 -130 -106 -130 -17 0 -16 28 1 59 8 14 12 31 9 38 -8
21 -30 15 -37 -11 -6 -24 -68 -86 -87 -86 -36 0 -6 94 44 136 36 30 55 31 67
2 8 -22 9 -22 9 4 2 64 -92 35 -146 -46 -38 -56 -43 -100 -13 -116 21 -11 71
7 86 32 6 9 10 5 14 -12 8 -36 33 -36 74 0 l36 32 0 -25 c0 -20 16 -37 35 -37
3 0 20 14 40 31 31 28 35 29 35 11 0 -48 79 -55 126 -11 20 19 24 20 24 6 0
-9 9 -21 19 -27 52 -27 88 4 97 85 4 34 15 72 27 88 14 21 17 31 8 40 -8 8
-18 4 -39 -16 -24 -23 -28 -35 -30 -89 -1 -35 -5 -70 -8 -80 -7 -22 -29 -29
-49 -15 -21 16 -10 47 17 47 16 0 19 5 15 21 -3 12 1 32 10 45 28 43 7 25 -41
-35 -48 -60 -93 -88 -121 -77 -17 6 -21 46 -4 46 5 0 7 5 4 10 -10 16 34 79
65 95 60 31 39 -35 -23 -74 -18 -12 -27 -21 -20 -21 22 0 93 76 93 100 0 21
-3 22 -42 17 -44 -6 -49 -10 -147 -127 -18 -22 -40 -40 -47 -40 -18 0 3 54 62
160 44 80 53 86 139 89 40 1 74 15 64 25 -3 3 -33 1 -67 -5 -59 -11 -63 -10
-81 12 l-20 24 -11 -32z"/>
<path d="M790 538 c-17 -24 -47 -75 -66 -115 -19 -39 -50 -85 -70 -102 -64
-56 -72 -34 -19 49 36 57 44 90 23 90 -14 0 -63 -83 -84 -142 -11 -31 -10 -39
2 -49 15 -12 45 2 91 43 22 20 22 20 16 -1 -7 -29 14 -53 41 -45 12 3 33 18
49 32 21 20 27 22 27 9 0 -21 38 -47 59 -40 9 3 26 15 39 26 l22 20 0 -21 c0
-50 65 -32 113 31 42 56 40 63 -3 15 -58 -67 -89 -65 -54 3 16 31 13 59 -6 59
-6 0 -13 -8 -17 -17 -8 -26 -75 -93 -90 -93 -26 0 -25 29 3 80 16 30 41 58 58
67 28 15 31 14 48 -7 13 -16 18 -18 18 -7 0 15 -25 47 -38 47 -3 0 -25 -9 -48
-20 -28 -14 -55 -40 -82 -79 -36 -50 -79 -91 -97 -91 -3 0 -5 12 -5 26 0 18
18 46 60 91 50 53 100 127 100 147 0 10 -32 36 -45 36 -7 0 -27 -19 -45 -42z
m59 -20 c-15 -29 -98 -138 -105 -138 -7 0 43 87 73 128 28 37 50 44 32 10z"/>
<path d="M654 515 c-4 -8 -1 -22 6 -30 10 -12 16 -12 45 2 39 18 54 43 27 43
-10 0 -23 -5 -29 -11 -8 -8 -13 -8 -17 0 -10 16 -26 14 -32 -4z"/>
<path d="M1213 3 c9 -2 23 -2 30 0 6 3 -1 5 -18 5 -16 0 -22 -2 -12 -5z"/>
</g>
</svg>
