<?xml version="1.0" standalone="no"?>
<!DOCTYPE svg PUBLIC "-//W3C//DTD SVG 20010904//EN"
 "http://www.w3.org/TR/2001/REC-SVG-20010904/DTD/svg10.dtd">
<svg version="1.0" xmlns="http://www.w3.org/2000/svg"
 width="145.000000pt" height="70.000000pt" viewBox="0 0 145.000000 70.000000"
 preserveAspectRatio="xMidYMid meet">

<g transform="translate(0.000000,70.000000) scale(0.100000,-0.100000)"
fill="#000000" stroke="none">
<path d="M519 665 c-19 -32 -24 -35 -54 -29 -43 8 -96 -10 -125 -41 -33 -35
-37 -111 -11 -194 l20 -65 -44 -62 c-58 -81 -133 -147 -185 -163 -37 -11 -46
-10 -81 8 -42 22 -47 16 -24 -30 17 -31 49 -49 91 -49 58 0 142 69 223 183 19
26 38 47 41 47 9 0 40 -108 40 -138 0 -31 16 -28 106 17 43 22 79 39 80 38 1
-1 -2 -24 -8 -52 -11 -60 0 -96 37 -121 33 -21 39 -15 26 31 -9 34 -4 95 14
168 4 16 42 63 87 107 120 121 155 213 101 267 -25 26 -25 28 -10 55 25 43 -6
37 -33 -7 -13 -20 -33 -38 -48 -41 -82 -20 -160 -86 -198 -168 -29 -63 -32
-95 -3 -41 35 65 84 120 133 145 25 14 48 22 51 18 3 -3 -14 -46 -38 -94 -24
-49 -55 -116 -68 -148 -26 -63 -60 -95 -151 -142 -58 -30 -58 -30 -58 2 0 14
-7 56 -16 93 l-16 66 56 115 c31 63 61 117 67 118 5 2 18 -16 30 -40 20 -43
20 -43 13 -8 -3 19 -12 49 -20 66 -13 26 -13 36 0 72 19 54 3 65 -25 17z m-46
-81 c4 -4 -14 -47 -40 -96 -49 -95 -63 -100 -63 -21 0 57 18 93 55 109 35 15
40 16 48 8z m345 -66 c2 -14 -3 -41 -11 -59 -16 -37 -96 -143 -103 -136 -3 2
5 29 16 58 63 161 91 199 98 137z"/>
<path d="M1098 513 c-39 -44 -64 -83 -114 -184 -48 -97 -89 -150 -136 -175
-15 -8 -29 -14 -33 -14 -15 0 0 35 49 116 41 68 52 93 44 107 -5 9 -14 17 -21
17 -17 0 -117 -199 -117 -233 0 -54 47 -46 119 19 l41 36 0 -41 c0 -67 44 -69
118 -6 l42 37 0 -26 c0 -32 40 -61 73 -52 12 3 37 19 55 37 l32 31 0 -31 c0
-24 5 -32 24 -37 42 -10 99 31 155 114 35 51 19 48 -18 -3 -38 -53 -88 -92
-102 -78 -6 6 -1 29 13 62 15 38 19 58 12 69 -17 27 -29 24 -42 -12 -15 -40
-93 -116 -121 -116 -33 0 -33 31 -1 97 21 42 44 72 68 88 49 34 70 32 87 -7
l14 -33 1 31 c0 39 -16 54 -60 54 -46 0 -106 -42 -146 -101 -47 -69 -121 -141
-141 -137 -35 7 -18 55 43 121 130 140 173 220 138 258 -24 26 -46 24 -76 -8z
m56 -55 c-20 -38 -121 -175 -136 -184 -19 -12 65 136 100 177 41 47 59 51 36
7z"/>
<path d="M965 464 c-21 -11 -31 -12 -42 -2 -11 9 -17 8 -29 -4 -14 -13 -14
-19 -2 -42 l13 -25 53 24 c47 22 65 46 44 59 -5 3 -21 -2 -37 -10z"/>
</g>
</svg>
